<svg xmlns="http://www.w3.org/2000/svg" xmlns:xlink="http://www.w3.org/1999/xlink" width="12" height="12" preserveAspectRatio="xMidYMid meet" viewBox="0 0 20 20" style="-ms-transform: rotate(360deg); -webkit-transform: rotate(360deg); transform: rotate(360deg);"><g fill="none"><path d="M10 2a8 8 0 1 1 0 16a8 8 0 0 1 0-16zm0 1a7 7 0 1 0 0 14a7 7 0 0 0 0-14zm-.5 2a.5.5 0 0 1 .492.41L10 5.5V10h2.5a.5.5 0 0 1 .09.992L12.5 11h-3a.5.5 0 0 1-.492-.41L9 10.5v-5a.5.5 0 0 1 .5-.5z" fill="black"/></g><rect width="20" height="20" fill="rgba(0, 0, 0, 0)" /></svg>